<svg xmlns="http://www.w3.org/2000/svg" viewBox="0 0 160 52.92"><defs><style>.cls-1{fill:#f06432;}.cls-2{fill:#686868;}.cls-3{fill:#808184;}</style></defs><g id="Layer_2" data-name="Layer 2"><g id="Graphic"><path class="cls-1" d="M0,28.05V.17H10c5.06,0,9.19,1.46,9.19,7.19v3.18c0,4.89-2.8,6.52-6.47,7.14-.88.17-1.67.17-6.65.17v10.2ZM6.1,13.34H9.91c1.63,0,3.13-.34,3.13-2.8V7.4c0-2.55-1.55-2.88-3.13-2.88H6.1Z"/><path class="cls-1" d="M28,7.23V22.32c0,2.38,3.13,1.09,4.3.42V7.23h6.1V28.05H33.24l-.53-1.8a8.28,8.28,0,0,1-5.06,2.26c-2.88,0-5.77-1.47-5.77-5.35V7.23Z"/><path class="cls-1" d="M49.08,28.17a9.52,9.52,0,0,1-2.59.34c-3.14,0-5.43-1.21-5.43-6.31V.17h6.1V22.51c0,1,0,1.79,1.92,2.13Z"/><path class="cls-1" d="M66.21,22.44c0,4.17-3,6.07-6.85,6.07A63,63,0,0,1,51.71,28V23.58a57.9,57.9,0,0,0,6.56.5c1,0,1.8-.17,1.8-1.18,0-2.57-9.36-3.07-9.36-9.86,0-4.21,2.88-6.26,6.81-6.26a50.68,50.68,0,0,1,7.69.7V11.9s-4.47-.5-7.52-.5c-.59,0-.92.38-.92,1.14C56.77,14.35,66.21,15.65,66.21,22.44Z"/><path class="cls-1" d="M84.61,19.36H73.91C74,24,75,24.24,77.3,24.24c.91,0,3.25-.16,6.31-.46v3.81a42.11,42.11,0,0,1-8,.92c-6.6,0-7.73-2.68-7.73-10.87,0-8.4,1-10.86,8.4-10.86,6.86,0,8.28,2.42,8.28,10.82ZM74,15h4.93c-.12-3.68-.63-4-2.55-4S74.12,12.05,74,15Z"/><path class="cls-2" d="M115.37,35.53H109l2.2-7.48h-1L104.44,7.23h6.27L113.58,20l3.76-12.77h6.36Z"/><path class="cls-2" d="M135.52,28.05V13c0-2.38-3.14-1.09-4.26-.42V28.05h-6.11V7.23h5.12L130.8,9a8.22,8.22,0,0,1,5-2.25c2.93,0,5.73,1.46,5.73,5.34V28.05Z"/><path class="cls-2" d="M153.82,24c1.46,0,4.3-.21,6.18-.38v3.77a37.51,37.51,0,0,1-7.65,1c-5.68,0-8.19-1-8.19-9.82,0-9,.79-11.87,7.57-11.87a77.49,77.49,0,0,1,8.06.79v4.14c-3.8-.29-6.52-.5-7-.5-2.46,0-2.42,1.34-2.42,7.57C150.39,23.37,151.43,24,153.82,24Z"/><path class="cls-2" d="M94.29,4.5c2.93,0,8.75.29,8.75.29V.37C100.81.21,98.75,0,94,0s-8.14,2.31-8.1,7.68c0,3.07,3.21,5.73,3.49,6l-1.9.77,9,0,1.6-4.25-1.58.64-1.48-.9h0c-1.67-1-2.9-2.18-2.9-3.28C92.18,5,93,4.5,94.29,4.5Z"/><path class="cls-2" d="M105.19,15H97l-1.78,5.3,2-1.07c1.72,2,.9,4.71-1.4,4.71-3.22,0-8.47-.29-8.47-.29v4.38c3.38.2,5.74.46,9,.46,4.59,0,8.18-2.2,8.18-7.53A9.93,9.93,0,0,0,103,16.16Z"/><path class="cls-3" d="M1.28,41.12,2,34.6H0l.09-.85h5L5,34.6H3l-.72,6.52Z"/><path class="cls-3" d="M7.75,35.49l-.09.85A5.82,5.82,0,0,0,6,36.8l-.47,4.32h-1l.61-5.53H6L6,36A4.91,4.91,0,0,1,7.75,35.49Z"/><path class="cls-3" d="M9.93,35.45a10.26,10.26,0,0,1,2.34.32l-.56,5.34H11l-.06-.44h0a3.46,3.46,0,0,1-1.62.51c-1,0-1.2-.91-1.2-1.87,0-.36,0-.73.09-1.35C8.32,36.21,8.83,35.45,9.93,35.45ZM9,39.35c0,.74.14,1.06.47,1.06a4.46,4.46,0,0,0,1.41-.47l.41-3.59h0a6.55,6.55,0,0,0-1.16-.09c-.74,0-.85.64-1,1.46A12.2,12.2,0,0,0,9,39.35Z"/><path class="cls-3" d="M16.13,41.12l.46-4.26c0-.31-.1-.48-.37-.48a4.62,4.62,0,0,0-1.62.38l-.48,4.36h-1l.61-5.53h.8l0,.4a4.77,4.77,0,0,1,1.86-.49c.75,0,1.21.41,1.11,1.33l-.47,4.29Z"/><path class="cls-3" d="M22,39.66a1.6,1.6,0,0,1-1.74,1.49,16.32,16.32,0,0,1-1.78-.09l.09-.81a15.49,15.49,0,0,0,1.65.09c.49,0,.75-.16.8-.6.12-1.13-2.59-.85-2.38-2.75a1.6,1.6,0,0,1,1.75-1.5,14.92,14.92,0,0,1,1.78.1l-.09.82a16.51,16.51,0,0,0-1.75-.1.61.61,0,0,0-.71.59C19.49,38,22.2,37.77,22,39.66Z"/><path class="cls-3" d="M24.21,35.6c.17-1.81.51-2.18,1.86-2.18a7.77,7.77,0,0,1,1,.06l-.08.71h-.84c-.74,0-.87.1-1,1.41h1.21l-.08.77H25.1l-.59,5.34c-.13,1.27-.65,1.57-1.31,1.57a3,3,0,0,1-.43,0l0-.52a.91.91,0,0,0,.76-.83c0-.3,0-.53.56-5.53h-.75l.08-.77Z"/><path class="cls-3" d="M27.09,38.33c.26-2.27.63-2.88,2.39-2.88s2,.66,1.76,2.88-.61,2.87-2.4,2.87S26.86,40.54,27.09,38.33Zm3.2,0c.2-1.8.13-2.14-.9-2.14s-1.12.38-1.32,2.14-.16,2.1.86,2.1S30.1,40.08,30.29,38.33Z"/><path class="cls-3" d="M35.15,35.49l-.09.85a5.91,5.91,0,0,0-1.67.46l-.46,4.32H32l.61-5.53h.83l0,.38A4.79,4.79,0,0,1,35.15,35.49Z"/><path class="cls-3" d="M41.11,41.12l.47-4.24c0-.32-.09-.49-.36-.49a6.63,6.63,0,0,0-1.55.28c-.16,1.46-.32,3-.48,4.45h-1l.47-4.26c0-.31-.08-.48-.35-.48a5.07,5.07,0,0,0-1.62.39l-.48,4.35h-1l.61-5.53h.78l.06.37a4.89,4.89,0,0,1,1.83-.46,1.11,1.11,0,0,1,.93.45,5.78,5.78,0,0,1,2-.45c.83,0,1.21.46,1.11,1.35l-.48,4.27Z"/><path class="cls-3" d="M43.53,41.12l.61-5.52h1l-.6,5.52Zm1.3-7.43c.51,0,.55.06.51.57s-.14.57-.65.57-.53-.12-.47-.57S44.32,33.69,44.83,33.69Z"/><path class="cls-3" d="M48.92,41.12l.46-4.26c0-.31-.1-.48-.38-.48a4.58,4.58,0,0,0-1.61.38l-.48,4.36H46l.61-5.53h.79l0,.4a4.77,4.77,0,0,1,1.86-.49c.75,0,1.2.41,1.1,1.33l-.46,4.29Z"/><path class="cls-3" d="M54.9,41.76c-.12,1.17-.72,1.52-1.78,1.52a7.71,7.71,0,0,1-1.77-.21s.2-.74.21-.76a8.15,8.15,0,0,0,1.48.17c1,0,1-.63,1.08-1.86h0a7.23,7.23,0,0,1-.89.05c-1.17,0-1.77-.21-1.77-1.52a6.16,6.16,0,0,1,0-.7c.27-2.33.62-3,2.46-3a15,15,0,0,1,1.61.14Zm-2.53-2.69c0,.8.34.82,1.19.82l.58,0h0c.14-1.2.28-2.39.42-3.61h0l-.72,0c-1.15,0-1.19.27-1.42,2.23A6,6,0,0,0,52.37,39.07Z"/><path class="cls-3" d="M58.27,41.12l3-7.37h1.42L64,41.12h-1l-.33-1.69H60l-.67,1.69Zm2-2.61h2.23l-.71-3.8Z"/><path class="cls-3" d="M68.51,41.76c-.12,1.17-.72,1.52-1.78,1.52A7.71,7.71,0,0,1,65,43.07s.2-.74.21-.76a8,8,0,0,0,1.48.17c.95,0,.95-.63,1.07-1.86h0a7.08,7.08,0,0,1-.88.05c-1.18,0-1.77-.21-1.77-1.52a6.16,6.16,0,0,1,0-.7c.27-2.33.62-3,2.46-3a15.15,15.15,0,0,1,1.6.14ZM66,39.07c0,.8.34.82,1.19.82l.58,0h0c.13-1.2.28-2.39.42-3.61h0l-.72,0c-1.15,0-1.2.27-1.42,2.23A6,6,0,0,0,66,39.07Z"/><path class="cls-3" d="M72.5,38.64H70.7v.05c0,.34,0,.61,0,.82,0,.9.51.93,1.08.93.2,0,.89,0,1.61-.11l-.09.68a10.52,10.52,0,0,1-1.92.2c-1.22,0-1.63-.44-1.63-1.68,0-.32,0-.73.07-1.2.25-2.22.59-2.89,2.35-2.89,1.38,0,1.83.41,1.83,1.65v.21C74,37.51,74,38.63,72.5,38.64Zm-1.69-.75h1.75c.5,0,.5-.42.5-.58v-.13c0-.79-.25-1-1-1C71,36.21,71,36.7,70.81,37.89Z"/><path class="cls-3" d="M74.42,38c.22-1.78.63-2.5,1.79-2.5.38,0,.77,0,1.31.1l.24-2.13h.95l-.85,7.68h-.73l-.06-.4a3.48,3.48,0,0,1-1.56.47c-1,0-1.37-.86-1.14-2.9Zm1.37,2.38a3.06,3.06,0,0,0,1.25-.4l.39-3.52a5.7,5.7,0,0,0-1.13-.1h0c-.67,0-.78.89-.87,1.66C75.19,39.7,75.25,40.34,75.79,40.34Z"/><path class="cls-3" d="M85.2,40.34c.35,0,.79,0,1.22-.07l-.09.77a12.62,12.62,0,0,1-2,.18c-1.77,0-2.49-.35-2.14-3.42.36-3.31.69-4.2,3.07-4.2.21,0,1.1.07,1.83.17l-.1.86H87c-1.21-.1-1.54-.12-1.67-.12-1.6,0-1.75.62-2,3.36C83,40.25,83.53,40.34,85.2,40.34Z"/><path class="cls-3" d="M89.29,35.45a10.26,10.26,0,0,1,2.34.32l-.56,5.34h-.75l-.06-.44h0a3.46,3.46,0,0,1-1.62.51c-1,0-1.2-.91-1.2-1.87,0-.36,0-.73.09-1.35C87.68,36.21,88.19,35.45,89.29,35.45Zm-.9,3.9c0,.74.14,1.06.47,1.06a4.58,4.58,0,0,0,1.42-.47l.4-3.59h0a6.55,6.55,0,0,0-1.16-.09c-.74,0-.85.64-1,1.46A12.2,12.2,0,0,0,88.39,39.35Z"/><path class="cls-3" d="M95.73,35.49l-.09.85A5.82,5.82,0,0,0,94,36.8l-.47,4.32h-1l.61-5.53H94L94,36A4.91,4.91,0,0,1,95.73,35.49Z"/><path class="cls-3" d="M98.91,38.64H97.12v.05c0,.34,0,.61,0,.82,0,.9.5.93,1.08.93.2,0,.89,0,1.61-.11l-.09.68a10.52,10.52,0,0,1-1.92.2c-1.23,0-1.64-.44-1.64-1.68,0-.32,0-.73.08-1.2.24-2.22.59-2.89,2.35-2.89,1.38,0,1.82.41,1.82,1.65v.21C100.37,37.51,100.36,38.63,98.91,38.64Zm-1.68-.75H99c.5,0,.5-.42.5-.58v-.13c0-.79-.26-1-1-1C97.45,36.21,97.38,36.7,97.23,37.89Z"/><path class="cls-3" d="M89.43,45.24c.16-1.81.5-2.18,1.86-2.18a7.73,7.73,0,0,1,1,.06l-.08.71h-.84c-.74,0-.86.1-1,1.41H91.6l-.08.77H90.31l-.59,5.34c-.13,1.27-.65,1.57-1.3,1.57a3,3,0,0,1-.43,0l0-.52a.89.89,0,0,0,.75-.83c0-.3,0-.54.57-5.53h-.76l.08-.77Z"/><path class="cls-3" d="M92.06,48c.25-2.27.63-2.87,2.39-2.87s2,.65,1.76,2.87-.61,2.87-2.4,2.87S91.83,50.21,92.06,48Zm3.2,0c.2-1.8.13-2.13-.9-2.13S93.23,46.23,93,48s-.15,2.11.87,2.11S95.07,49.74,95.26,48Z"/><path class="cls-3" d="M100.41,45.13l-.09.85a5.82,5.82,0,0,0-1.67.46l-.47,4.32h-1l.61-5.53h.83l0,.38A4.91,4.91,0,0,1,100.41,45.13Z"/><path class="cls-3" d="M104,49.55c0-.26,0-.56.37-3.57h-1.14q0-.39.09-.75h1.14c0-.45.1-.95.15-1.4h.92l-.16,1.4h1.18c0,.25,0,.48-.08.75h-1.18l-.36,3.44c-.06.56.21.71.65.71a2.09,2.09,0,0,0,.56-.08c0,.25,0,.48-.07.71a3.47,3.47,0,0,1-.7.1C104.22,50.86,104,50.37,104,49.55Z"/><path class="cls-3" d="M110.12,50.76l.46-4.27c0-.29-.09-.48-.38-.48a4.54,4.54,0,0,0-1.64.36l-.48,4.39h-.94l.83-7.62h.94l-.27,2.4a6.12,6.12,0,0,1,1.81-.39c.83,0,1.18.44,1.08,1.34l-.47,4.27Z"/><path class="cls-3" d="M115.18,48.28h-1.79v.05a6.93,6.93,0,0,0,0,.82c0,.9.51.93,1.09.93.19,0,.88,0,1.6-.11l-.09.68a10.41,10.41,0,0,1-1.91.2c-1.23,0-1.64-.44-1.64-1.68a12,12,0,0,1,.08-1.2c.24-2.22.58-2.89,2.34-2.89,1.39,0,1.83.41,1.83,1.65V47C116.64,47.15,116.63,48.27,115.18,48.28Zm-1.68-.75h1.74c.5,0,.5-.42.5-.58v-.13c0-.79-.25-1-1-1C113.72,45.85,113.65,46.34,113.5,47.53Z"/><path class="cls-3" d="M119.74,50.76l.81-7.37h4.1l-.1.85h-3.11l-.26,2.34h2.68l-.1.86h-2.68l-.36,3.32Z"/><path class="cls-3" d="M126.19,45.25l-.47,4.26c0,.3.1.47.37.47a4.56,4.56,0,0,0,1.62-.37l.49-4.36h1l-.61,5.52h-.79l-.05-.39a4.84,4.84,0,0,1-1.85.48c-.76,0-1.2-.41-1.1-1.33l.46-4.28Z"/><path class="cls-3" d="M130.51,49.55c0-.26,0-.56.36-3.57h-1.14l.09-.75H131c.06-.45.1-.95.16-1.4H132l-.16,1.4h1.18c0,.25-.05.48-.08.75h-1.19l-.35,3.44c-.07.56.21.71.65.71a2.14,2.14,0,0,0,.56-.08c0,.25-.05.48-.07.71a3.47,3.47,0,0,1-.7.1C130.77,50.86,130.51,50.37,130.51,49.55Z"/><path class="cls-3" d="M135.32,45.25l-.47,4.26c0,.3.09.47.37.47a4.56,4.56,0,0,0,1.62-.37l.49-4.36h1l-.61,5.52h-.8l0-.39a4.84,4.84,0,0,1-1.85.48c-.76,0-1.21-.41-1.11-1.33l.47-4.28Z"/><path class="cls-3" d="M142.46,45.13l-.09.85a5.82,5.82,0,0,0-1.67.46l-.47,4.32h-1l.61-5.53h.83l0,.38A4.91,4.91,0,0,1,142.46,45.13Z"/><path class="cls-3" d="M145.67,48.28h-1.79v.05a6.93,6.93,0,0,0,0,.82c0,.9.51.93,1.09.93.2,0,.88,0,1.6-.11l-.09.68a10.41,10.41,0,0,1-1.91.2c-1.23,0-1.64-.44-1.64-1.68A12,12,0,0,1,143,48c.24-2.22.58-2.89,2.34-2.89,1.39,0,1.83.41,1.83,1.65V47C147.13,47.15,147.12,48.27,145.67,48.28ZM144,47.53h1.75c.49,0,.49-.42.49-.58v-.13c0-.79-.25-1-1-1C144.21,45.85,144.14,46.34,144,47.53Z"/><path class="cls-3" d="M154.51,47.06l.4-3.66h1l-.4,3.66c-.34,3.1-.72,3.8-2.92,3.8s-2.38-.79-2-3.8l.4-3.66h1l-.4,3.66c-.28,2.47-.27,3,1.13,3S154.23,49.63,154.51,47.06Z"/><path class="cls-3" d="M159.83,49.3a1.59,1.59,0,0,1-1.73,1.49,15,15,0,0,1-1.79-.1l.09-.8a15.49,15.49,0,0,0,1.65.09c.49,0,.75-.16.8-.6.12-1.13-2.59-.86-2.38-2.75a1.6,1.6,0,0,1,1.75-1.5,14.92,14.92,0,0,1,1.78.1l-.09.82a16.51,16.51,0,0,0-1.75-.1.61.61,0,0,0-.71.59C157.33,47.61,160,47.41,159.83,49.3Z"/></g></g></svg>